<svg xmlns="http://www.w3.org/2000/svg" viewBox="0 0 512 512" role="img" aria-label="OtoKusur">
  <rect width="512" height="512" rx="120" fill="#A91D3A"/>
  <path d="M112 302c0-17 13-30 30-30h216c17 0 30 13 30 30v28c0 11-9 20-20 20H132c-11 0-20-9-20-20v-28Z" fill="#fff"/>
  <path d="m162 272 34-76c7-15 21-24 38-24h53c16 0 31 8 39 22l40 78" fill="#fff" fill-opacity=".14" stroke="#fff" stroke-width="22" stroke-linecap="round" stroke-linejoin="round"/>
  <path d="M260 180v92" stroke="#fff" stroke-opacity=".36" stroke-width="10"/>
  <circle cx="174" cy="350" r="30" fill="#A91D3A" stroke="#fff" stroke-width="18"/>
  <circle cx="326" cy="350" r="30" fill="#A91D3A" stroke="#fff" stroke-width="18"/>
  <circle cx="356" cy="142" r="55" fill="#A91D3A" stroke="#fff" stroke-width="20"/>
  <path d="m395 181 42 42M329 143l18 18 39-42" fill="none" stroke="#fff" stroke-width="20" stroke-linecap="round" stroke-linejoin="round"/>
</svg>
